<svg width="24" height="28" viewBox="0 0 24 28" fill="none" xmlns="http://www.w3.org/2000/svg">
<path d="M20.6375 7.32509C19.0125 4.72509 16.9 2.48759 15.0625 0.650091C14.9492 0.53777 14.8106 0.454199 14.6584 0.406358C14.5062 0.358517 14.3447 0.347797 14.1875 0.375091C14.0292 0.400029 13.8793 0.463135 13.7508 0.558959C13.6223 0.654783 13.5191 0.780444 13.45 0.925091L9.5875 9.02509L5.5625 6.33759C5.34173 6.19146 5.0725 6.13761 4.8125 6.18759C4.68352 6.21305 4.56082 6.26369 4.45143 6.33662C4.34204 6.40954 4.24811 6.50332 4.175 6.61259C1.7375 10.2876 0.5 13.6126 0.5 16.5001C0.5 19.5501 1.7116 22.4752 3.86827 24.6318C6.02494 26.7885 8.95001 28.0001 12 28.0001C15.05 28.0001 17.9751 26.7885 20.1317 24.6318C22.2884 22.4752 23.5 19.5501 23.5 16.5001C23.5 13.3876 22.5625 10.3876 20.6375 7.32509ZM19.4125 17.6501C19.176 19.2266 18.4401 20.6857 17.3129 21.813C16.1856 22.9402 14.7265 23.6761 13.15 23.9126H13C12.7491 23.9107 12.5081 23.8146 12.3247 23.6433C12.1414 23.472 12.0292 23.2381 12.0103 22.9879C11.9914 22.7377 12.0673 22.4895 12.2228 22.2927C12.3784 22.0958 12.6022 21.9646 12.85 21.9251C13.9992 21.7383 15.0606 21.1947 15.8839 20.3715C16.7071 19.5482 17.2507 18.4868 17.4375 17.3376C17.4513 17.2029 17.4924 17.0724 17.5581 16.9541C17.6239 16.8357 17.713 16.7319 17.82 16.649C17.9271 16.5661 18.0499 16.5059 18.1809 16.4718C18.312 16.4378 18.4486 16.4307 18.5824 16.4511C18.7163 16.4714 18.8446 16.5187 18.9597 16.5901C19.0747 16.6615 19.1741 16.7556 19.2517 16.8665C19.3293 16.9774 19.3836 17.103 19.4112 17.2355C19.4388 17.3681 19.4393 17.5049 19.4125 17.6376V17.6501Z" fill="#FFB31F"/>
</svg>
